<svg width="190" height="190" viewBox="0 0 190 190" fill="none" xmlns="http://www.w3.org/2000/svg">
<ellipse cx="95.0002" cy="95.3167" rx="88.6667" ry="88.9833" fill="white"/>
<circle cx="95.3167" cy="95.3167" r="64.9167" fill="#FDE6C4"/>
<path d="M184.785 94.9736C184.594 144.943 144.274 184.928 94.6393 184.737C44.1446 184.546 4.92391 143.319 5.06723 94.5914C5.21054 45.6253 45.0045 4.92371 95.2126 5.06703C144.226 5.21034 184.641 44.7654 184.785 94.9736ZM94.8782 7.45562C46.1987 7.6467 7.55139 46.9151 7.55139 94.878C7.55139 143.414 46.8198 182.253 94.926 182.253C144.131 182.253 182.301 142.172 182.348 94.9736C182.396 47.9661 144.513 7.6467 94.8782 7.45562Z" fill="#040728"/>
<path d="M63.1099 135.914C61.7245 137.682 60.8646 139.449 60.2436 141.36C58.6194 146.042 57.855 150.819 58.3327 155.787C58.6671 159.083 59.4793 162.236 61.2946 165.055C61.8201 165.867 62.4411 166.631 62.7278 167.73C62.3456 167.634 62.1068 167.682 61.9634 167.587C55.562 164.386 49.7338 160.373 44.7178 155.214C42.9024 153.351 41.2782 151.344 39.7496 149.242C36.7399 145.182 35.0679 140.5 34.1602 135.58C33.9691 134.433 33.7303 133.334 33.6347 132.188C33.5392 130.946 32.9659 130.086 32.0105 129.321C27.8543 125.882 24.988 121.487 23.4116 116.328C22.6472 113.843 22.2173 111.264 22.2173 108.684C22.2173 96.1678 22.1217 83.6038 22.2173 71.0876C22.3128 58.0937 31.9628 46.8196 44.7656 44.431C46.5809 44.0966 48.3962 43.9532 50.2115 43.9532C80.6422 43.9532 111.025 44.001 141.456 43.9532C154.736 43.9532 165.819 53.0776 168.686 65.2595C169.211 67.4092 169.45 69.6067 169.45 71.852C169.45 83.9383 169.354 95.9767 169.45 108.063C169.546 120.149 161.377 132.044 147.762 135.293C145.421 135.866 143.08 135.962 140.691 135.962C126.694 135.962 112.745 135.962 98.7477 135.962C87.5691 135.962 76.4382 135.962 65.2596 135.962C64.5908 135.914 63.8743 135.914 63.1099 135.914ZM61.2469 132.857C62.3456 132.857 63.2533 132.857 64.2087 132.857C89.4322 132.857 114.656 132.857 139.831 132.857C141.408 132.857 143.032 132.809 144.609 132.57C154.688 131.137 161.424 125.547 165.007 116.089C166.106 113.175 166.345 110.165 166.345 107.06C166.345 95.6901 166.345 84.2726 166.345 72.9029C166.345 71.8997 166.345 70.8966 166.249 69.9411C165.198 59.4313 159.657 52.2656 149.864 48.4438C146.854 47.2495 143.605 47.0584 140.405 47.0584C110.595 47.0584 80.8333 47.0584 51.0237 47.0584C49.9727 47.0584 48.8739 47.0584 47.8229 47.2017C37.3131 48.3005 30.2429 53.9376 26.469 63.7308C25.3702 66.5971 25.1313 69.6545 25.1313 72.7596C25.1313 84.2249 25.1313 95.6901 25.1313 107.155C25.1313 108.063 25.1791 108.971 25.2269 109.926C25.6569 116.471 28.3798 121.965 33.157 126.455C33.7781 127.028 34.3991 127.554 35.1157 128.032C35.8322 128.557 36.2622 129.178 36.3577 130.086C36.4533 131.28 36.6922 132.522 36.8832 133.716C37.7909 139.545 39.8928 144.895 43.6668 149.529C46.9153 153.542 50.737 156.934 54.8932 159.895C55.132 160.039 55.4187 160.134 55.8486 160.278C54.1288 150.389 55.4187 141.264 61.2469 132.857Z" fill="#040728"/>
<path d="M104.815 89.8157C104.958 93.8763 101.853 98.4146 96.3591 98.5102C90.7698 98.558 87.7123 94.0196 87.6646 90.0546C87.6168 85.3252 91.3908 81.3601 96.1202 81.3601C101.662 81.3601 104.862 85.8029 104.815 89.8157Z" fill="#040728"/>
<path d="M126.168 98.3181C121.391 98.3181 117.569 94.4486 117.617 89.7192C117.665 84.9898 121.535 81.1681 126.264 81.1681C130.993 81.1681 134.815 85.0854 134.815 89.8148C134.767 94.5442 130.898 98.3181 126.168 98.3181Z" fill="#040728"/>
<path d="M63.8259 81.0717C67.9343 80.8806 72.3771 84.1291 72.4727 89.5273C72.5682 94.2567 68.6987 98.1262 63.9693 98.174C59.1921 98.2218 55.3704 94.4478 55.3226 89.6706C55.2748 84.9412 59.0965 81.1195 63.8259 81.0717Z" fill="#040728"/>
</svg>
