<svg width="64" height="64" viewBox="0 0 64 64" fill="none" xmlns="http://www.w3.org/2000/svg">
  <rect width="64" height="64" rx="32" fill="#0F172A"/>
  <circle cx="32" cy="32" r="24" fill="#FFFFFF"/>
  <path d="M35.328 23.6H24V25.696H28.48V40H31.36V25.696H35.328V23.6Z" fill="#0F172A"/>
  <path d="M33.0976 32.704H39.2896C39.2896 30.672 39.2896 28.8 39.2896 27.264C39.2896 24.656 37.3856 23.28 34.7776 23.28C31.8336 23.28 29.6416 25.216 29.6416 28.544C29.6416 31.84 31.6416 33.744 34.6176 33.744C36.0336 33.744 37.1376 33.328 37.9616 32.752V31.744L36.4336 30.896C35.9936 31.456 35.4656 31.84 34.6336 31.84C33.3536 31.84 32.6736 30.72 32.6736 28.544C32.6736 26.432 33.3856 25.184 34.7456 25.184C36.0736 25.184 36.3776 26.064 36.3776 27.344C36.3776 28.064 36.3616 28.8 36.3616 29.536H33.0976V32.704Z" fill="#0F172A"/>
</svg>