<svg width="64" height="64" viewBox="0 0 64 64" fill="none" xmlns="http://www.w3.org/2000/svg">
  <rect width="64" height="64" rx="32" fill="#F59E0B"/>
  <circle cx="32" cy="32" r="24" fill="#FFFFFF"/>
  <path d="M32 24C28.686 24 26 26.686 26 30C26 33.314 28.686 36 32 36C35.314 36 38 33.314 38 30C38 26.686 35.314 24 32 24Z" fill="#F59E0B"/>
  <rect x="23" y="36" width="18" height="5" rx="2.5" fill="#F59E0B"/>
  <path d="M26 28C27.1046 28 28 27.5523 28 27C28 26.4477 27.1046 26 26 26C24.8954 26 24 26.4477 24 27C24 27.5523 24.8954 28 26 28Z" fill="#FFFFFF"/>
  <path d="M38 28C39.1046 28 40 27.5523 40 27C40 26.4477 39.1046 26 38 26C36.8954 26 36 26.4477 36 27C36 27.5523 36.8954 28 38 28Z" fill="#FFFFFF"/>
  <path d="M32 32C33.1046 32 34 31.5523 34 31C34 30.4477 33.1046 30 32 30C30.8954 30 30 30.4477 30 31C30 31.5523 30.8954 32 32 32Z" fill="#FFFFFF"/>
  <path d="M30 44L32 42M34 44L32 42M32 42V36" stroke="#F59E0B" stroke-width="2" stroke-linecap="round" stroke-linejoin="round"/>
  <path d="M44 26L42 24M20 26L22 24" stroke="#F59E0B" stroke-width="2" stroke-linecap="round"/>
</svg>