<svg width="64" height="64" viewBox="0 0 64 64" fill="none" xmlns="http://www.w3.org/2000/svg">
  <rect width="64" height="64" rx="32" fill="#F59E0B"/>
  <circle cx="32" cy="32" r="24" fill="#FFFFFF"/>
  <path d="M24.375 37.088C24.6831 37.76 25.151 38.32 25.7871 38.704C26.7231 39.328 28.0031 39.472 29.2671 39.472C31.4751 39.472 33.2351 38.56 33.2351 36.4C33.2351 34.784 32.0351 33.904 30.2591 33.472L27.9231 32.912C27.3351 32.784 26.9711 32.512 26.9711 31.984C26.9711 31.248 27.6351 30.88 28.3631 30.88C29.2031 30.88 29.8991 31.168 30.1751 32.096L32.9431 31.44C32.5951 30.064 31.2831 28.928 28.4271 28.928C26.0751 28.928 24.4591 30.048 24.4591 32.16C24.4591 33.664 25.4751 34.592 27.3671 35.072L29.5751 35.616C30.2871 35.776 30.7231 36.032 30.7231 36.608C30.7231 37.312 30.0751 37.648 29.1871 37.648C28.1911 37.648 27.3991 37.104 27.1071 36.144L24.375 37.088Z" fill="#F59E0B"/>
  <path d="M33.3909 40V25.872H36.407L40.647 33.392H40.7109L44.9509 25.872H48.0229V40H45.3749V31.056H45.3269L41.6269 37.792H39.6869L35.9869 31.072H35.9389V40H33.3909Z" fill="#F59E0B"/>
</svg>