<svg width="64" height="64" viewBox="0 0 64 64" fill="none" xmlns="http://www.w3.org/2000/svg">
  <rect width="64" height="64" rx="32" fill="#10B981"/>
  <circle cx="32" cy="32" r="24" fill="#FFFFFF"/>
  <path d="M32 20C25.373 20 20 25.373 20 32C20 38.627 25.373 44 32 44C38.627 44 44 38.627 44 32C44 25.373 38.627 20 32 20Z" stroke="#10B981" stroke-width="3"/>
  <path d="M26 32C26 28.686 28.686 26 32 26C35.314 26 38 28.686 38 32" stroke="#10B981" stroke-width="3" stroke-linecap="round"/>
  <path d="M26 38C26 38 28 40 32 40C36 40 38 38 38 38" stroke="#10B981" stroke-width="3" stroke-linecap="round"/>
  <path d="M22 28L27 33M42 28L37 33" stroke="#10B981" stroke-width="2" stroke-linecap="round"/>
</svg>