<svg width="64" height="64" viewBox="0 0 64 64" fill="none" xmlns="http://www.w3.org/2000/svg">
  <rect width="64" height="64" rx="32" fill="#FFC700"/>
  <circle cx="32" cy="32" r="24" fill="#FFFFFF"/>
  <path d="M21.4453 40H25.0693L25.9733 37.44H31.6613L32.5653 40H36.3253L30.6053 23.6H27.0773L21.4453 40ZM26.7173 34.8L28.7973 28.064H28.8453L30.9253 34.8H26.7173Z" fill="#FFC700"/>
  <path d="M39.8691 40V32.8C39.8691 32.272 39.8531 31.744 39.7891 31.232H39.8531L40.9891 33.36L45.3971 40H48.3251V23.6H45.3331V30.8C45.3331 31.328 45.3491 31.856 45.4131 32.368H45.3491L44.2131 30.24L39.8051 23.6H36.8771V40H39.8691Z" fill="#FFC700"/>
</svg>