<svg width="64" height="64" viewBox="0 0 64 64" fill="none" xmlns="http://www.w3.org/2000/svg">
  <rect width="64" height="64" rx="32" fill="#FFC700"/>
  <circle cx="32" cy="32" r="24" fill="#FFFFFF"/>
  <path d="M32 16C23.164 16 16 23.164 16 32C16 40.836 23.164 48 32 48C40.836 48 48 40.836 48 32C48 23.164 40.836 16 32 16ZM32 46C24.268 46 18 39.732 18 32C18 24.268 24.268 18 32 18C39.732 18 46 24.268 46 32C46 39.732 39.732 46 32 46Z" fill="#FFC700"/>
  <path d="M26 33C27.1046 33 28 31.8807 28 30.5C28 29.1193 27.1046 28 26 28C24.8954 28 24 29.1193 24 30.5C24 31.8807 24.8954 33 26 33Z" fill="#333333"/>
  <path d="M38 33C39.1046 33 40 31.8807 40 30.5C40 29.1193 39.1046 28 38 28C36.8954 28 36 29.1193 36 30.5C36 31.8807 36.8954 33 38 33Z" fill="#333333"/>
  <path d="M25 38C25 38 28 42 32 42C36 42 39 38 39 38" stroke="#333333" stroke-width="2" stroke-linecap="round"/>
  <path d="M39 24L43 20" stroke="#333333" stroke-width="2" stroke-linecap="round"/>
  <path d="M25 24L21 20" stroke="#333333" stroke-width="2" stroke-linecap="round"/>
</svg>